<?xml version="1.0" encoding="utf-8"?>
<!-- Generator: Adobe Illustrator 22.1.0, SVG Export Plug-In . SVG Version: 6.00 Build 0)  -->
<svg version="1.1" id="Layer_1" xmlns="http://www.w3.org/2000/svg" xmlns:xlink="http://www.w3.org/1999/xlink" x="0px" y="0px"
	 viewBox="0 0 1920 1873" style="enable-background:new 0 0 1920 1873;" xml:space="preserve">
<style type="text/css">
	.st0{fill:#231F20;}
</style>
<g>
	<g>
		<path class="st0" d="M1783.5,605.2c-41.3,4-44.8,11.4-49.2,37.4c-4.4,26-43.7,216.2-43.7,216.2s-10.4,57.9-49.9,51.5
			s-35.2-81.3-12.6-151.4s35.5-105.1,35.5-105.1s10.7-25.1-37.3-21.7c-41.1,2.9-47.1,29.5-47.1,29.5s-52.1,138.6-39.5,232.2
			c-44.2,61.2-89.1,10.6-41.3-79.9c56.4-106.9,12-118.4-16-113.3c-28.1,5.1-42-14.3-60.9-28.9c-18.9-14.6-37.4-11.5-63.2,11.1
			c-19.7,17.3-17.4,28-13.4,35.5c2,3.7,12.7,8.5,4.4,20.5c-11.3,16.5-28.1,12.8-38.6,8.1c-15.5-20.1-37.2-33.3-63.6-36.2
			c-25.4-2.8-51.7,4.3-76.2,18.7c-74.5,26.7-89.6,12.5-148.9,21.2c-64.5,9.5-54,66.4-54,66.4l0,0c0.3,4.2,0.8,8.6,1.7,13.3
			c15.6,83.6-61.2,222.4-81.4,179.3c-20.1-43.1-15.2-80.5,5.7-168l12.5-47c0,0,5.9-18.6-30.2-19c0,0-31.2-1.3-45.3,40
			c-9.9,29-33.3,105.7-26.8,175.5c-10.7,24.6-25.7,47.1-45.6,51.7c-47.4,10.8-24.7-98.5-6.5-132.2s18.4-94.3-43.7-62.2
			c0,0-80.8-72.2-154.3,16c-73.5,88.1-105,214.7-36.2,271.5c68.7,56.7,140-27,159.2-74.8c0,0,43.1,118.4,140.3-15.1
			c6.1,14.4,14.5,27.7,25.7,39.1c72.6,73.6,184.2-116.5,199.2-216.9c2.6-17.6,4.3-32.5,5.4-45.2c23.7-24.9,36.4-11.5,41.5-2.5
			c-7.1,14.2-13,29.4-17.4,45.3c-25.6,93.6,11.4,175.9,82.6,183.8S1304,988,1329.6,894.4c8.5-31.2,10.1-61.2,5.7-87.5
			c61.4-54,103.4-38.1,83.2,69.2c-20.4,108.3,25.7,127.1,70.6,118.8c23.4-4.3,48.7-28.3,67.6-50.2c44.6,73.5,107.9,15.6,116.7,13.4
			c7.1-1.8-3.8,34-3.8,34s-46.4,196.6-29.2,262.4c5.2,20,40.4,82.2,69.9-91.3s100.3-525.1,100.3-525.1S1824.8,601.2,1783.5,605.2z
			 M661.5,942.4l-31.9,83c-16.6,43.2-34,53.1-52.3,45.6s-23.8-37.7-7.4-93.6c16.4-55.8,48.2-78,78.6-72.4
			C678.9,910.7,661.5,942.4,661.5,942.4z M1250.3,885.7c-17.7,64.7-54.2,114.7-81.6,111.7s-35.2-58-17.5-122.7
			s54.2-114.7,81.6-111.7C1260.1,766.1,1267.9,821,1250.3,885.7z"/>
		<path class="st0" d="M364.5,862.3c-14.1,5.1-15.8,25-8.8,35.7c16.3,25.2,53.4,52.6,122.6-32.6c100.1-123.4,26-241.4-74-240.2
			s-195.5,49.5-247.5,186.6s69.2,215,146.5,260.3s63.3,152.2-29.4,172.1c-84.6,18.1-97.6-73.2-64.1-139.2c6.2-12.1,3.2-25.6-7-31.2
			c-22.4-12.1-60.6-20-84.3,45.6c-35.1,97.4,7.9,233.8,165.3,206c54.3-9.6,104.4-38.3,133.3-86.1c23.2-38.5,32-87,23.3-131.5
			c-9.3-47.9-39.6-80.2-78.3-107.4c-37.8-26.6-81.3-49.9-105.7-90.9c-7.7-13-12.6-27.8-11.3-43.1c6.8-79.4,91.5-175.5,149.7-141.8
			C447.5,755.3,410.3,845.7,364.5,862.3z"/>
	</g>
	<path class="st0" d="M521.4,1314.1c-21.4,5.7-40.1-8.2-39.3-29.8c0-0.3,0-0.7,0-1c1.8-33.7,9.9-36.4,52.7-47.9
		c42.2-11.3,747.9-194.4,993.9-139c7.9,1.8,14.6,6.4,18.5,13.3c6.4,11.3,12.4,31.2-0.1,57.2c-7.7,16-24.5,26.4-40.5,25.2
		C1416.8,1185.6,1057.7,1172,521.4,1314.1z"/>
</g>
</svg>
